<svg xmlns="http://www.w3.org/2000/svg" viewBox="73 73 38.598109 32.380946"><path d="M79.348 81.1c.01 8.02 4.608 24.36 20.22 24.28 6.645-.033 12.03-5.383 12.03-12.03 0-6.646-5.385-11.977-12.03-12.03-6.92-.057-9.348 4.413-12.907 5.593-3.832 1.27-7.31-6.027-7.31-5.813zm2.406 5.28c1.222 2.115 4.882 3.47 6.875 1.44-1.4 2.525-3.058 7.5 1.56 12.905-4.696-2.32-8.47-12.568-8.437-14.343z" fill="#ffc200"/><path d="M99.457 83.3c-5.633 0-10.2 4.5-10.2 10.045 0 5.152 3.926 9.38 9 9.958.25.013.39-.008.51-.11.095-.08.145-.22.145-.34v-5.978c-2.747-.286-4.947-2.557-4.913-5.337.03-2.656 1.86-4.776 4.28-5.276.064-.013.112-.033.145 0 .038.038.012.134.012.134l-.18.885s-.01.056-.026.073c-.015.017-.034.03-.06.037-1.05.328-2.003 1.04-2.462 1.903-.383.718-.63 1.254-.63 2.232 0 2.105 1.648 4.03 3.83 4.293v-6.646c0-.694.04-1.508.45-2.062.32-.432.87-.692 1.747-.692 1.26 0 2.768.914 3.53 2.91.23.605.366 1.37.363 2.197-.007 2.77-2.166 5.04-4.9 5.337v5.99c0 .16.042.283.134.353.11.086.212.124.52.097.116-.01.332-.044.426-.06 4.81-.806 8.466-4.93 8.466-9.898 0-5.546-4.556-10.043-10.19-10.043zm1.65 4.174c-.52.047-.743.244-.86.522-.12.278-.147.91-.147 1.177v6.634c1.26-.168 2.424-.896 3.154-2.05.408-.643.622-1.49.655-2.243.045-1.104-.283-1.995-.718-2.705s-1.218-1.415-2.086-1.336z" fill="#7a5d00" fill-opacity=".941"/><path d="M94.842 81.138c-6.83 2.355-7.092 4.75-9.415 4.198C83.103 84.784 79.055 76.32 73 73c13.356 4.516 7.47 10.738 21.842 8.138z" fill="#ffc200"/><path d="M79.05 74.817c7.285.164 8.36 4.873 12.98 5.52-7.956.988-7.652-4.347-12.98-5.52z" fill="#ffc200"/></svg>