<svg xmlns="http://www.w3.org/2000/svg" viewBox="73 73 38.598109 32.380946"><path d="M79.348 81.1c.01 8.02 4.608 24.36 20.22 24.28 6.645-.034 12.03-5.384 12.03-12.03 0-6.647-5.385-11.978-12.03-12.032-6.92-.056-9.348 4.414-12.907 5.594-3.833 1.27-7.312-6.027-7.312-5.813zm2.406 5.28c1.222 2.114 4.882 3.468 6.875 1.438-1.398 2.526-3.057 7.5 1.562 12.906-4.697-2.32-8.47-12.568-8.438-14.343z" fill="#ffc200"/><path d="M99.457 83.3c-5.633 0-10.2 4.498-10.2 10.044 0 5.152 3.926 9.38 9 9.958.25.013.39-.008.51-.11.095-.08.145-.22.145-.34v-5.978c-2.747-.286-4.947-2.557-4.913-5.337.03-2.656 1.86-4.776 4.28-5.276.065-.013.113-.033.146 0 .038.038.012.134.012.134l-.18.885s-.01.055-.026.072c-.016.017-.035.03-.06.037-1.052.328-2.004 1.04-2.463 1.903-.383.718-.63 1.254-.63 2.232 0 2.105 1.648 4.03 3.83 4.293v-6.646c0-.694.04-1.508.45-2.062.32-.432.87-.692 1.747-.692 1.26 0 2.768.914 3.53 2.91.23.605.366 1.37.363 2.197-.007 2.77-2.166 5.04-4.9 5.337v5.99c0 .16.042.283.134.353.11.086.212.124.52.097.116-.01.332-.044.426-.06 4.81-.806 8.466-4.93 8.466-9.898 0-5.546-4.556-10.043-10.19-10.043zm1.65 4.173c-.52.047-.743.244-.86.522-.12.278-.147.91-.147 1.177v6.634c1.26-.168 2.424-.896 3.154-2.05.408-.643.622-1.49.655-2.243.046-1.104-.282-1.995-.717-2.705s-1.218-1.414-2.086-1.335z" fill="#7a5d00" fill-opacity=".941"/><path d="M94.842 81.137c-6.83 2.355-7.092 4.75-9.415 4.198C83.103 84.783 79.055 76.318 73 73c13.356 4.515 7.47 10.737 21.842 8.137z" fill="#ffc200"/><path d="M79.05 74.816c7.285.164 8.36 4.873 12.98 5.52-7.956.988-7.652-4.347-12.98-5.52z" fill="#ffc200"/></svg>
